<?xml version="1.0" encoding="UTF-8"?>
<svg id="Layer_1" xmlns="http://www.w3.org/2000/svg" version="1.1" viewBox="0 0 403.85 148.36">
  <!-- Generator: Adobe Illustrator 30.5.1, SVG Export Plug-In . SVG Version: 2.1.4 Build 3)  -->
  <defs>
    <style>
      .st0 {
        fill: #ee7436;
      }

      .st0, .st1, .st2 {
        fill-rule: evenodd;
      }

      .st1 {
        fill: #5e3832;
      }

      .st2 {
        fill: #b2832c;
      }
    </style>
  </defs>
  <g>
    <g>
      <path class="st0" d="M225.88.16c-9.52,1.76-16.07,4.85-22.32,12.38-5.06,6.02-6.7,10.87-8.04,18.32-.6,3.26,1.04,4.27,4.32,3.85,9.97-1,17.41-6.77,22.47-12.38,3.87-4.52,7.14-11.79,7.89-18.32.45-3.43-1.19-4.43-4.32-3.85"/>
      <path class="st0" d="M173.8,13.79c-1.34,4.77,3.87,12.71,5.95,14.72,6.4,6.19,20.09,11.04,13.54-2.51-2.38-4.85-5.95-8.45-10.71-10.62-2.23-1.09-5.95-2.51-8.78-1.59"/>
    </g>
    <g>
      <path class="st0" d="M237.86,29.47c-14.29,2.63-24.11,7.28-33.49,18.57-7.59,9.03-10.04,16.31-12.05,27.47-.89,4.89,1.56,6.4,6.47,5.77,14.96-1.51,26.12-10.16,33.71-18.57,5.8-6.78,10.72-17.69,11.83-27.48.67-5.14-1.79-6.65-6.47-5.77"/>
      <path class="st0" d="M159.73,49.92c-2.01,7.15,5.8,19.07,8.93,22.08,9.6,9.28,30.14,16.56,20.31-3.76-3.57-7.28-8.93-12.67-16.07-15.93-3.35-1.63-8.93-3.76-13.17-2.38"/>
    </g>
    <g>
      <path class="st0" d="M249.84,73.23c-19.05,3.51-32.14,9.7-44.65,24.76-10.12,12.04-13.39,21.74-16.07,36.63-1.19,6.52,2.09,8.53,8.63,7.69,19.94-2.01,34.82-13.55,44.94-24.76,7.74-9.03,14.29-23.59,15.78-36.63.89-6.86-2.38-8.86-8.63-7.69"/>
      <path class="st0" d="M145.67,100.49c-2.68,9.54,7.74,25.43,11.9,29.44,12.8,12.38,40.18,22.08,27.09-5.02-4.76-9.7-11.91-16.89-21.43-21.24-4.46-2.18-11.91-5.02-17.56-3.18"/>
    </g>
  </g>
  <g>
    <g>
      <path class="st2" d="M80.65,6.03c-9.52,1.76-16.07,4.85-22.32,12.38-5.06,6.02-6.7,10.87-8.04,18.32-.6,3.26,1.04,4.27,4.32,3.85,9.97-1,17.41-6.77,22.47-12.38,3.87-4.52,7.14-11.79,7.89-18.32.45-3.43-1.19-4.43-4.32-3.85"/>
      <path class="st2" d="M28.56,19.66c-1.34,4.77,3.87,12.71,5.95,14.72,6.4,6.19,20.09,11.04,13.54-2.51-2.38-4.85-5.95-8.45-10.71-10.62-2.23-1.09-5.95-2.51-8.78-1.59"/>
    </g>
    <g>
      <path class="st2" d="M92.63,35.35c-14.29,2.63-24.11,7.28-33.49,18.57-7.59,9.03-10.04,16.31-12.05,27.47-.89,4.89,1.56,6.4,6.47,5.77,14.96-1.51,26.12-10.16,33.71-18.57,5.8-6.78,10.72-17.69,11.83-27.48.67-5.14-1.79-6.65-6.47-5.77"/>
      <path class="st2" d="M14.5,55.8c-2.01,7.15,5.8,19.07,8.93,22.08,9.6,9.28,30.14,16.56,20.31-3.76-3.57-7.28-8.93-12.67-16.07-15.93-3.35-1.63-8.93-3.76-13.17-2.38"/>
    </g>
    <g>
      <path class="st2" d="M104.61,79.1c-19.05,3.51-32.14,9.7-44.65,24.76-10.12,12.04-13.39,21.74-16.07,36.63-1.19,6.52,2.09,8.53,8.63,7.69,19.94-2.01,34.82-13.55,44.94-24.76,7.74-9.03,14.29-23.59,15.78-36.63.89-6.86-2.38-8.86-8.63-7.69"/>
      <path class="st2" d="M.43,106.36c-2.68,9.54,7.74,25.43,11.9,29.44,12.8,12.38,40.18,22.08,27.09-5.02-4.76-9.7-11.91-16.89-21.43-21.24-4.46-2.18-11.91-5.02-17.56-3.18"/>
    </g>
  </g>
  <g>
    <g>
      <path class="st1" d="M371.11.16c-9.52,1.76-16.07,4.85-22.32,12.38-5.06,6.02-6.7,10.87-8.04,18.32-.6,3.26,1.04,4.27,4.32,3.85,9.97-1,17.41-6.77,22.47-12.38,3.87-4.52,7.14-11.79,7.89-18.32.45-3.43-1.19-4.43-4.32-3.85"/>
      <path class="st1" d="M319.03,13.79c-1.34,4.77,3.87,12.71,5.95,14.72,6.4,6.19,20.09,11.04,13.54-2.51-2.38-4.85-5.95-8.45-10.71-10.62-2.23-1.09-5.95-2.51-8.78-1.59"/>
    </g>
    <g>
      <path class="st1" d="M383.09,29.47c-14.29,2.63-24.11,7.28-33.49,18.57-7.59,9.03-10.04,16.31-12.05,27.47-.89,4.89,1.56,6.4,6.47,5.77,14.96-1.51,26.12-10.16,33.71-18.57,5.8-6.78,10.72-17.69,11.83-27.48.67-5.14-1.79-6.65-6.47-5.77"/>
      <path class="st1" d="M304.96,49.92c-2.01,7.15,5.8,19.07,8.93,22.08,9.6,9.28,30.14,16.56,20.31-3.76-3.57-7.28-8.93-12.67-16.07-15.93-3.35-1.63-8.93-3.76-13.17-2.38"/>
    </g>
    <g>
      <path class="st1" d="M395.07,73.23c-19.05,3.51-32.14,9.7-44.65,24.76-10.12,12.04-13.39,21.74-16.07,36.63-1.19,6.52,2.09,8.53,8.63,7.69,19.94-2.01,34.82-13.55,44.94-24.76,7.74-9.03,14.29-23.59,15.78-36.63.89-6.86-2.38-8.86-8.63-7.69"/>
      <path class="st1" d="M290.9,100.49c-2.68,9.54,7.74,25.43,11.9,29.44,12.8,12.38,40.18,22.08,27.09-5.02-4.76-9.7-11.91-16.89-21.43-21.24-4.46-2.18-11.91-5.02-17.56-3.18"/>
    </g>
  </g>
</svg>