<?xml version="1.0" encoding="UTF-8"?>
<svg id="Layer_1" xmlns="http://www.w3.org/2000/svg" version="1.1" viewBox="0 0 427.22 118.6">
  <!-- Generator: Adobe Illustrator 30.5.1, SVG Export Plug-In . SVG Version: 2.1.4 Build 3)  -->
  <defs>
    <style>
      .st0 {
        fill: #ee7436;
      }

      .st0, .st1, .st2 {
        fill-rule: evenodd;
      }

      .st1 {
        fill: #5e3832;
      }

      .st2 {
        fill: #b2832c;
      }
    </style>
  </defs>
  <g>
    <g>
      <path class="st2" d="M116.49,109.56c-2.9-15.75-8.02-26.57-20.46-36.91-9.95-8.36-17.97-11.07-30.28-13.29-5.39-.98-7.05,1.72-6.36,7.14,1.66,16.48,11.2,28.79,20.46,37.15,7.47,6.4,19.5,11.81,30.28,13.04,5.67.74,7.33-1.97,6.36-7.14"/>
      <path class="st2" d="M109.56.26c-15.75,2.9-26.57,8.02-36.91,20.46-8.36,9.95-11.07,17.97-13.29,30.28-.98,5.39,1.72,7.05,7.14,6.36,16.48-1.66,28.79-11.2,37.15-20.46,6.4-7.47,11.81-19.5,13.04-30.28.74-5.67-1.97-7.33-7.14-6.36"/>
    </g>
    <g>
      <path class="st2" d="M.33,7.26c2.9,15.75,8.02,26.57,20.46,36.91,9.95,8.36,17.97,11.07,30.28,13.29,5.39.98,7.05-1.72,6.36-7.14-1.66-16.48-11.2-28.79-20.46-37.15C29.5,6.76,17.47,1.35,6.69.12,1.02-.62-.64,2.09.33,7.26"/>
      <path class="st2" d="M7.26,116.55c15.75-2.9,26.57-8.02,36.91-20.46,8.36-9.95,11.07-17.97,13.29-30.28.98-5.39-1.72-7.05-7.14-6.36-16.48,1.66-28.79,11.2-37.15,20.46C6.76,87.38,1.35,99.41.12,110.19c-.74,5.67,1.97,7.33,7.14,6.36"/>
    </g>
  </g>
  <g>
    <g>
      <path class="st1" d="M426.89,111.34c-2.9-15.75-8.02-26.57-20.46-36.91-9.95-8.36-17.97-11.07-30.28-13.29-5.39-.98-7.05,1.72-6.36,7.14,1.66,16.48,11.2,28.79,20.46,37.15,7.47,6.4,19.5,11.81,30.28,13.04,5.67.74,7.33-1.97,6.36-7.14"/>
      <path class="st1" d="M419.96,2.05c-15.75,2.9-26.57,8.02-36.91,20.46-8.36,9.95-11.07,17.97-13.29,30.28-.98,5.39,1.72,7.05,7.14,6.36,16.48-1.66,28.79-11.2,37.15-20.46,6.4-7.47,11.81-19.5,13.04-30.28.74-5.67-1.97-7.33-7.14-6.36"/>
    </g>
    <g>
      <path class="st1" d="M310.73,9.04c2.9,15.75,8.02,26.57,20.46,36.91,9.95,8.36,17.97,11.07,30.28,13.29,5.39.98,7.05-1.72,6.36-7.14-1.66-16.48-11.2-28.79-20.46-37.15-7.47-6.4-19.5-11.81-30.28-13.04-5.67-.74-7.33,1.97-6.36,7.14"/>
      <path class="st1" d="M317.66,118.34c15.75-2.9,26.57-8.02,36.91-20.46,8.36-9.95,11.07-17.97,13.29-30.28.98-5.39-1.72-7.05-7.14-6.36-16.48,1.66-28.79,11.2-37.15,20.46-6.4,7.47-11.81,19.5-13.04,30.28-.74,5.67,1.97,7.33,7.14,6.36"/>
    </g>
  </g>
  <g>
    <g>
      <path class="st0" d="M276.18,110.45c-2.9-15.75-8.02-26.57-20.46-36.91-9.95-8.36-17.97-11.07-30.28-13.29-5.39-.98-7.05,1.72-6.36,7.14,1.66,16.48,11.2,28.79,20.46,37.15,7.47,6.4,19.5,11.81,30.28,13.04,5.67.74,7.33-1.97,6.36-7.14"/>
      <path class="st0" d="M269.25,1.15c-15.75,2.9-26.57,8.02-36.91,20.46-8.36,9.95-11.07,17.97-13.29,30.28-.98,5.39,1.72,7.05,7.14,6.36,16.48-1.66,28.79-11.2,37.15-20.46,6.4-7.47,11.81-19.5,13.04-30.28.74-5.67-1.97-7.33-7.14-6.36"/>
    </g>
    <g>
      <path class="st0" d="M160.02,8.15c2.9,15.75,8.02,26.57,20.46,36.91,9.95,8.36,17.97,11.07,30.28,13.29,5.39.98,7.05-1.72,6.36-7.14-1.66-16.48-11.2-28.79-20.46-37.15-7.47-6.4-19.5-11.81-30.28-13.04-5.67-.74-7.33,1.97-6.36,7.14"/>
      <path class="st0" d="M166.95,117.45c15.75-2.9,26.57-8.02,36.91-20.46,8.36-9.95,11.07-17.97,13.29-30.28.98-5.39-1.72-7.05-7.14-6.36-16.48,1.66-28.79,11.2-37.15,20.46-6.4,7.47-11.81,19.5-13.04,30.28-.74,5.67,1.97,7.33,7.14,6.36"/>
    </g>
  </g>
</svg>